<?xml version="1.0" encoding="UTF-8" standalone="no"?> <!-- Created with Vectornator for iOS (http://vectornator.io/) --><!DOCTYPE svg PUBLIC "-//W3C//DTD SVG 1.1//EN" "http://www.w3.org/Graphics/SVG/1.1/DTD/svg11.dtd">
<svg style="fill-rule:evenodd;clip-rule:evenodd;stroke-linecap:round;stroke-linejoin:round;" xmlns:vectornator="http://vectornator.io" xmlns:xlink="http://www.w3.org/1999/xlink" xmlns="http://www.w3.org/2000/svg" xml:space="preserve" version="1.1" viewBox="0 0 90 60">
<metadata>
<vectornator:setting key="DynamicGuides" value="1"/>
<vectornator:setting key="Units" value="Points"/>
<vectornator:setting key="RulersVisible" value="1"/>
<vectornator:setting key="SnapToGuides" value="1"/>
<vectornator:setting key="GridSpacing" value="36"/>
</metadata>
<defs/>
<g id="Back" vectornator:layerName="Back">
<g opacity="1">
<path d="M19.5692+10.8875L20.3035+10.8875C23.1609+10.8875+25.8221+11.6471+28.1333+13.0284C29.2981+13.7246+30.3553+14.6096+31.342+15.5723C31.9127+16.129+32.4076+16.6273+32.8876+17.1685C33.1391+17.4522+33.3972+17.7838+33.6458+18.0944C33.7796+18.2616+33.9095+18.4795+34.0458+18.6593C34.5799+19.3638+35.0741+20.3947+35.5225+21.6133C36.1498+23.3178+36.9198+25.5999+36.7584+29.2332C36.7341+29.7799+36.6768+30.3525+36.577+30.9594C36.5242+31.28+36.4345+31.6059+36.386+31.952C36.3554+32.1706+36.279+32.3925+36.2348+32.6062C35.9712+33.8803+35.5217+35.0638+35.017+36.2052C33.6722+39.2469+31.7052+42.0259+29.1398+43.8179C28.3109+44.3969+27.4298+44.8578+26.5161+45.2856C25.9182+45.5655+25.28+45.8038+24.6425+46.0077C24.1975+46.1501+23.7658+46.2871+23.294+46.3616C22.3598+46.5092+21.2828+46.3616+20.3035+46.3616L19.5692+46.3616C17.609+46.3616+15.6851+46.1138+13.9051+45.4961C12.5025+45.0095+11.1905+44.271+10.0107+43.3951C5.69798+40.1928+3+34.6687+3+28.6245L3+28.6245C3+22.5042+5.77371+16.8903+10.1786+13.7024C11.3943+12.8226+12.7471+12.1053+14.1914+11.6428C15.8899+11.0988+17.7137+10.8875+19.5692+10.8875Z" fill-rule="evenodd" fill="#c48a0c" opacity="0.991956"/>
<path stroke="#000000" stroke-width="1" d="" fill="none" stroke-linecap="butt" opacity="0.63" stroke-linejoin="miter"/>
<path stroke="#000000" stroke-width="1" d="M67.7647+10.8493L18.231+10.8493C9.84232+10.8493+3.04192+18.7219+3.04192+28.4332L3.04192+28.7885C3.04192+38.4997+9.84232+46.3723+18.231+46.3723L67.7647+46.3723C72.1393+46.3723+76.2371+44.3795+79.0083+40.9533C81.552+37.8095+82.9535+33.4354+82.9535+28.7885L82.9535+28.4332C82.9535+18.7219+76.1534+10.8493+67.7647+10.8493Z" fill="none" stroke-linecap="butt" opacity="0.63" stroke-linejoin="miter"/>
<path d="M19.3515+16.9341C19.1375+16.9394+18.966+17.1426+18.969+17.3896C18.969+18.7596+18.5151+19.1678+17.9353+19.7687C17.3554+20.3679+16.6434+21.1615+16.6434+22.7716C16.642+22.9327+16.7148+23.0834+16.8363+23.1657C16.9577+23.2463+17.1064+23.2463+17.2279+23.1657C17.3493+23.0834+17.4222+22.9327+17.4206+22.7716C17.4206+21.433+17.8715+21.0389+18.4544+20.4362C19.0373+19.8336+19.7463+19.0259+19.7463+17.3896C19.7477+17.2687+19.7068+17.1513+19.6324+17.0655C19.558+16.9796+19.4563+16.9323+19.3515+16.9341ZM21.2976+19.1766C21.0836+19.1818+20.912+19.385+20.9151+19.6321C20.9151+20.5081+20.654+20.7165+20.2669+21.1142C19.8798+21.5119+19.3576+22.1041+19.3576+23.2201C19.3561+23.3812+19.429+23.5319+19.5504+23.6142C19.6718+23.6948+19.8206+23.6948+19.942+23.6142C20.0635+23.5319+20.1363+23.3812+20.1349+23.2201C20.1349+22.3791+20.3914+22.1864+20.783+21.7835C21.1746+21.3823+21.6923+20.7744+21.6923+19.6321C21.6938+19.5112+21.6529+19.3938+21.5784+19.308C21.504+19.2221+21.4023+19.1748+21.2976+19.1766ZM13.5285+24.5656C13.3145+24.5656+13.14+24.7653+13.14+25.014L13.14+30.3959C13.14+31.8641+13.7562+33.1658+14.705+33.984L22.4558+33.984C23.2088+33.334+23.7477+32.3774+23.9389+31.2754C24.8269+31.1914+25.4766+30.7446+25.847+30.0579C26.2463+29.3115+26.3419+28.3637+26.3465+27.3336C26.348+27.3301+26.348+27.3266+26.348+27.3231C26.351+27.3003+26.3525+27.2793+26.3525+27.2565C26.3525+26.5189+25.8258+25.911+25.1867+25.911L24.0209+25.911L24.0209+25.014C24.0209+24.7653+23.8463+24.5656+23.6323+24.5656L13.5285+24.5656ZM24.0209+26.808L25.1867+26.808C25.4068+26.808+25.5753+27.0025+25.5753+27.2565C25.5753+28.2499+25.463+29.0697+25.1867+29.5848C24.9545+30.0158+24.6266+30.2891+24.0209+30.3679L24.0209+26.808ZM11.9741+34.8809C11.7601+34.8809+11.5855+35.0806+11.5855+35.3294C11.5855+36.5715+13.0731+37.5719+14.3057+37.5719L22.8551+37.5719C24.1135+37.5719+25.5753+36.5926+25.5753+35.3294C25.5753+35.0806+25.4007+34.8809+25.1867+34.8809L11.9741+34.8809Z" fill-rule="evenodd" fill="#000000" opacity="1"/>
<path d="M69.4218+10.8493L45.746+10.8611C43.0054+10.8611+26.2752+10.8493+22.497+10.8493C21.6004+10.8493+23.802+10.8172+26.4052+11.9889C27.7188+12.5802+28.4993+12.958+29.863+14.0421C31.3066+15.1899+32.0289+16.0951+32.7907+16.849C36.291+20.3133+36.9976+26.607+36.9976+28.445L36.9976+28.8002C36.9976+29.8999+36.6833+32.6235+35.5682+35.4506C34.6311+37.8262+32.999+40.3672+31.3606+42.0903C27.5307+46.1186+22.1895+46.3723+23.6746+46.3723C30.3382+46.3723+42.996+46.3841+45.746+46.3841L69.2328+46.3723C69.2757+46.3723+76.0007+45.3739+79.4928+40.3399C81.0335+38.1178+82.1521+35.1569+82.6269+32.476C83.1817+29.3411+82.9535+26.6334+82.9535+26.6078L82.9535+26.6078C82.9535+26.5552+81.9106+19.9568+78.2824+15.7361C75.2077+12.1591+69.4602+10.8493+69.4218+10.8493Z" fill-rule="evenodd" fill="#585151" opacity="0.63"/>
</g>
</g>
</svg>
